<?xml version="1.0" encoding="UTF-8"?><svg id="a" xmlns="http://www.w3.org/2000/svg" xmlns:xlink="http://www.w3.org/1999/xlink" viewBox="0 0 284.63 80.7"><defs><filter id="b" x="18.89" y="14.3" width="47" height="55" filterUnits="userSpaceOnUse"><feOffset dx="1" dy="1"/><feGaussianBlur result="c" stdDeviation="1"/><feFlood flood-color="#000" flood-opacity=".5"/><feComposite in2="c" operator="in"/><feComposite in="SourceGraphic"/></filter><filter id="d" x="21.26" y="17.04" width="32.81" height="47.56" filterUnits="userSpaceOnUse"><feOffset dx="1" dy="1"/><feGaussianBlur result="e" stdDeviation="2"/><feFlood flood-color="#231815" flood-opacity=".75"/><feComposite in2="e" operator="in"/><feComposite in="SourceGraphic"/></filter><filter id="f" x="37.21" y="28.57" width="24.3" height="36.04" filterUnits="userSpaceOnUse"><feOffset dx="1" dy="1"/><feGaussianBlur result="g" stdDeviation="2"/><feFlood flood-color="#231815" flood-opacity=".75"/><feComposite in2="g" operator="in"/><feComposite in="SourceGraphic"/></filter></defs><rect x="-14.19" width="104.76" height="104.76" style="fill:none;"/><circle cx="39.78" cy="41.41" r="39.3" style="fill:#1759a7;"/><g style="filter:url(#b);"><g style="filter:url(#d);"><path d="M31.97,26.55h-10.71l1.79-9.51h31.02l-1.79,9.51h-10.77l-7.15,38.05h-9.54l7.15-38.05Z" style="fill:#fff;"/></g><g style="filter:url(#f);"><path d="M43.43,28.57h8.79l-4.97,28.78h14.25l-1.25,7.26h-23.04l6.22-36.04Z" style="fill:#fff;"/></g></g><g style="opacity:.92;"><path d="M95.19,35.81h34.22c.82,0,1.15.43,1,1.29l-1.34,8.09c-.15.86-.63,1.29-1.45,1.29h-22.29c-.86,0-1.36.43-1.5,1.29l-2.68,16.07c-.15.86-.65,1.29-1.5,1.29h-9.36c-.86,0-1.21-.43-1.06-1.29l4.46-26.74c.15-.86.65-1.29,1.5-1.29ZM108.74,18.45l-1.78,10.73c-.15.86-.65,1.29-1.5,1.29h-9.36c-.86,0-1.21-.43-1.06-1.29l1.78-10.73c.15-.86.65-1.29,1.5-1.29h9.36c.85,0,1.21.43,1.06,1.29Z" style="fill:#231815;"/><path d="M163.46,41.15h11.31c.45,0,.67.16.67.47,0,.16-.07.33-.22.53l-18.06,21.99c-.56.66-1.25,1-2.06,1h-21.96c-.86,0-1.21-.43-1.06-1.29l7.58-45.39c.15-.86.65-1.29,1.5-1.29h9.14c.82,0,1.15.43,1,1.29l-5.8,34.72c-.15.86.2,1.29,1.06,1.29h3.46c.82,0,1.5-.33,2.06-1l9.31-11.32c.56-.67,1.25-1,2.06-1Z" style="fill:#231815;"/><path d="M182.86,35.81h43.03c.85,0,1.21.43,1.06,1.29l-1.34,8.03c-.15.9-.46,1.72-.95,2.46l-10.48,16.42c-.48.74-1.13,1.12-1.95,1.12h-17.83c-.85,0-1.21-.43-1.06-1.29l1.34-8.03c.15-.9.65-1.35,1.5-1.35h9.53c.85,0,1.52-.35,2.01-1.06l3.85-5.86c.48-.7.3-1.06-.56-1.06h-29.93c-.86,0-1.21-.45-1.06-1.35l1.34-8.03c.15-.86.65-1.29,1.5-1.29ZM226.44,21.15l-1.34,8.04c-.15.86-.65,1.29-1.5,1.29h-37.73c-.82,0-1.17-.43-1.06-1.29l1.39-8.04c.15-.9.63-1.35,1.45-1.35h37.79c.82,0,1.15.45,1,1.35Z" style="fill:#231815;"/><path d="M242.16,38.51c.85,0,1.21.43,1.06,1.29l-3.57,21.35c-.15.9-.65,1.35-1.5,1.35h-7.64c-.82,0-1.15-.45-1-1.35l3.57-21.35c.15-.86.65-1.29,1.5-1.29h7.58ZM278.27,25.43c.85,0,1.21.43,1.06,1.29l-.84,5.1c-.15.9-.65,1.35-1.5,1.35h-43.08c-.82,0-1.15-.45-1-1.35l1.34-8.04c.15-.86.63-1.29,1.45-1.29h14.21c.85,0,1.36-.45,1.5-1.35l.45-2.7c.15-.86.63-1.29,1.45-1.29h9.64c.85,0,1.21.43,1.06,1.29l-.45,2.7c-.15.9.2,1.35,1.06,1.35h3.4c.82,0,1.17.35,1.06,1.06l-.17,1.06c-.11.55.09.82.61.82h8.75ZM259.66,38.51c.82,0,1.15.43,1,1.29l-4.01,24.05c-.15.86-.65,1.29-1.5,1.29h-9.59c-.86,0-1.21-.43-1.06-1.29l4.01-24.05c.15-.86.65-1.29,1.5-1.29h9.64ZM275.1,38.51c.85,0,1.21.43,1.06,1.29l-3.62,21.35c-.15.9-.63,1.35-1.45,1.35h-7.64c-.82,0-1.15-.45-1-1.35l3.57-21.35c.15-.86.63-1.29,1.45-1.29h7.64ZM271.7,23.85c-.52,0-.72-.27-.61-.82l1.28-7.74c.07-.55.37-.82.89-.82h2.9c.52,0,.74.27.67.82l-1.34,7.74c-.08.55-.37.82-.89.82h-2.9ZM282.62,14.46c.52,0,.72.27.61.82l-1.28,7.74c-.08.55-.37.82-.89.82h-2.9c-.52,0-.72-.27-.61-.82l1.28-7.74c.07-.55.37-.82.89-.82h2.9Z" style="fill:#231815;"/></g></svg>