<?xml version="1.0" encoding="UTF-8"?><svg id="a" xmlns="http://www.w3.org/2000/svg" xmlns:xlink="http://www.w3.org/1999/xlink" viewBox="0 0 239.56 308.72"><defs><filter id="b" x="65.63" y="46.08" width="130.8" height="152.4" filterUnits="userSpaceOnUse"><feOffset dx="2" dy="2"/><feGaussianBlur result="c" stdDeviation="2"/><feFlood flood-color="#231815" flood-opacity=".75"/><feComposite in2="c" operator="in"/><feComposite in="SourceGraphic"/></filter><filter id="d" x="69.79" y="50.22" width="96.7" height="140.14" filterUnits="userSpaceOnUse"><feOffset dx="1" dy="1"/><feGaussianBlur result="e" stdDeviation="2"/><feFlood flood-color="#231815" flood-opacity=".75"/><feComposite in2="e" operator="in"/><feComposite in="SourceGraphic"/></filter><filter id="f" x="116.81" y="84.21" width="71.61" height="106.18" filterUnits="userSpaceOnUse"><feOffset dx="1" dy="1"/><feGaussianBlur result="g" stdDeviation="2"/><feFlood flood-color="#231815" flood-opacity=".75"/><feComposite in2="g" operator="in"/><feComposite in="SourceGraphic"/></filter></defs><rect x="-40.56" width="308.72" height="308.72" style="fill:none;"/><circle cx="118.5" cy="122.02" r="115.81" style="fill:#1759a8;"/><g style="filter:url(#b);"><g style="filter:url(#d);"><path d="M101.37,78.25h-31.58l5.27-28.03h91.43l-5.27,28.03h-31.73l-21.08,112.11h-28.12l21.08-112.11Z" style="fill:#fff;"/></g><g style="filter:url(#f);"><path d="M135.14,84.21h25.92l-14.64,84.8h41.99l-3.69,21.38h-67.91l18.33-106.18Z" style="fill:#fff;"/></g></g><g style="opacity:.92;"><path d="M32.25,269.67h34.22c.82,0,1.15.43,1,1.29l-1.34,8.09c-.15.86-.63,1.29-1.45,1.29h-22.29c-.86,0-1.36.43-1.5,1.29l-2.68,16.07c-.15.86-.65,1.29-1.5,1.29h-9.36c-.86,0-1.21-.43-1.06-1.29l4.46-26.74c.15-.86.65-1.29,1.5-1.29ZM45.8,252.31l-1.78,10.73c-.15.86-.65,1.29-1.5,1.29h-9.36c-.86,0-1.21-.43-1.06-1.29l1.78-10.73c.15-.86.65-1.29,1.5-1.29h9.36c.85,0,1.21.43,1.06,1.29Z" style="fill:#231815;"/><path d="M99.52,275.01h11.31c.45,0,.67.16.67.47,0,.16-.07.33-.22.53l-18.06,21.99c-.56.66-1.25,1-2.06,1h-21.96c-.86,0-1.21-.43-1.06-1.29l7.58-45.39c.15-.86.65-1.29,1.5-1.29h9.14c.82,0,1.15.43,1,1.29l-5.8,34.72c-.15.86.2,1.29,1.06,1.29h3.46c.82,0,1.5-.33,2.06-1l9.31-11.32c.56-.67,1.25-1,2.06-1Z" style="fill:#231815;"/><path d="M118.92,269.67h43.03c.85,0,1.21.43,1.06,1.29l-1.34,8.03c-.15.9-.46,1.72-.95,2.46l-10.48,16.42c-.48.74-1.13,1.12-1.95,1.12h-17.83c-.85,0-1.21-.43-1.06-1.29l1.34-8.03c.15-.9.65-1.35,1.5-1.35h9.53c.85,0,1.52-.35,2.01-1.06l3.85-5.86c.48-.7.3-1.06-.56-1.06h-29.93c-.86,0-1.21-.45-1.06-1.35l1.34-8.03c.15-.86.65-1.29,1.5-1.29ZM162.5,255.01l-1.34,8.04c-.15.86-.65,1.29-1.5,1.29h-37.73c-.82,0-1.17-.43-1.06-1.29l1.39-8.04c.15-.9.63-1.35,1.45-1.35h37.79c.82,0,1.15.45,1,1.35Z" style="fill:#231815;"/><path d="M178.22,272.37c.85,0,1.21.43,1.06,1.29l-3.57,21.35c-.15.9-.65,1.35-1.5,1.35h-7.64c-.82,0-1.15-.45-1-1.35l3.57-21.35c.15-.86.65-1.29,1.5-1.29h7.58ZM214.33,259.29c.85,0,1.21.43,1.06,1.29l-.84,5.1c-.15.9-.65,1.35-1.5,1.35h-43.08c-.82,0-1.15-.45-1-1.35l1.34-8.04c.15-.86.63-1.29,1.45-1.29h14.21c.85,0,1.36-.45,1.5-1.35l.45-2.7c.15-.86.63-1.29,1.45-1.29h9.64c.85,0,1.21.43,1.06,1.29l-.45,2.7c-.15.9.2,1.35,1.06,1.35h3.4c.82,0,1.17.35,1.06,1.06l-.17,1.06c-.11.55.09.82.61.82h8.75ZM195.72,272.37c.82,0,1.15.43,1,1.29l-4.01,24.05c-.15.86-.65,1.29-1.5,1.29h-9.59c-.86,0-1.21-.43-1.06-1.29l4.01-24.05c.15-.86.65-1.29,1.5-1.29h9.64ZM211.16,272.37c.85,0,1.21.43,1.06,1.29l-3.62,21.35c-.15.9-.63,1.35-1.45,1.35h-7.64c-.82,0-1.15-.45-1-1.35l3.57-21.35c.15-.86.63-1.29,1.45-1.29h7.64ZM207.76,257.71c-.52,0-.72-.27-.61-.82l1.28-7.74c.07-.55.37-.82.89-.82h2.9c.52,0,.74.27.67.82l-1.34,7.74c-.08.55-.37.82-.89.82h-2.9ZM218.68,248.32c.52,0,.72.27.61.82l-1.28,7.74c-.08.55-.37.82-.89.82h-2.9c-.52,0-.72-.27-.61-.82l1.28-7.74c.07-.55.37-.82.89-.82h2.9Z" style="fill:#231815;"/></g><rect x="217.01" width="308.72" height="308.72" style="fill:none;"/></svg>